<svg viewBox="0 0 28 16" version="1.1" xmlns="http://www.w3.org/2000/svg" xmlns:xlink="http://www.w3.org/1999/xlink">
    <!-- Generator: Sketch 52.6 (67491) - http://www.bohemiancoding.com/sketch -->
    <g id="图标/小图标/终端" stroke="none" stroke-width="1" fill="none" fill-rule="evenodd">
        <path d="M2,1 C1.44771525,1 1,1.44771525 1,2 L1,14 C1,14.5522847 1.44771525,15 2,15 L26,15 C26.5522847,15 27,14.5522847 27,14 L27,2 C27,1.44771525 26.5522847,1 26,1 L2,1 Z M2,0 L26,0 C27.1045695,-2.02906125e-16 28,0.8954305 28,2 L28,14 C28,15.1045695 27.1045695,16 26,16 L2,16 C0.8954305,16 1.3527075e-16,15.1045695 0,14 L0,2 C-1.3527075e-16,0.8954305 0.8954305,2.02906125e-16 2,0 Z M6.452,10.824 L6.452,11.7 C5.348,12.108 4.088,12.444 2.684,12.708 L2.564,11.808 C4.04,11.568 5.336,11.232 6.452,10.824 Z M4.532,2.16 L5.336,2.472 C4.748,3.984 4.148,5.184 3.524,6.096 C4.04,6.036 4.556,5.952 5.072,5.856 C5.312,5.364 5.564,4.836 5.828,4.284 L6.584,4.56 C5.516,6.744 4.64,8.292 3.944,9.204 C4.616,9.036 5.3,8.82 5.972,8.556 L5.972,9.336 C4.916,9.732 3.896,10.008 2.936,10.152 L2.708,9.36 C2.852,9.3 2.984,9.216 3.092,9.12 C3.536,8.628 4.064,7.8 4.688,6.624 C4.028,6.744 3.368,6.864 2.708,6.96 L2.504,6.168 C2.636,6.12 2.756,6.012 2.852,5.856 C3.5,4.776 4.052,3.552 4.532,2.16 Z M8.912,8.616 C10.112,8.988 11.216,9.444 12.2,9.972 L11.768,10.632 C10.688,10.056 9.596,9.612 8.468,9.276 L8.912,8.616 Z M7.46,10.656 C9.38,11.16 11.132,11.76 12.716,12.48 L12.26,13.2 C10.544,12.432 8.78,11.82 6.98,11.376 L7.46,10.656 Z M8.6,2.16 L9.476,2.268 C9.368,2.64 9.248,3 9.116,3.336 L12.56,3.336 L12.56,4.044 C12.044,5.028 11.432,5.88 10.712,6.612 C11.564,7.212 12.512,7.74 13.568,8.172 L13.124,8.952 C12.02,8.472 11.012,7.872 10.112,7.176 C9.116,8.004 7.964,8.64 6.644,9.096 L6.224,8.328 C7.448,7.944 8.516,7.38 9.452,6.636 C8.936,6.204 8.456,5.724 8.024,5.22 C7.724,5.604 7.388,5.964 7.028,6.3 L6.488,5.592 C7.52,4.656 8.228,3.504 8.6,2.16 Z M10.052,6.108 C10.628,5.544 11.132,4.896 11.576,4.176 L8.72,4.176 C8.636,4.32 8.552,4.452 8.48,4.584 C8.948,5.136 9.476,5.64 10.052,6.108 Z M14.516,4.2 L16.088,4.2 C15.92,3.576 15.74,3 15.536,2.484 L16.4,2.34 C16.568,2.88 16.736,3.504 16.904,4.2 L18.308,4.2 L18.308,5.016 L14.516,5.016 L14.516,4.2 Z M15.5,5.724 C15.752,7.092 15.98,8.676 16.184,10.452 L15.476,10.632 C15.296,9.012 15.068,7.452 14.792,5.952 L15.5,5.724 Z M18.296,10.56 L18.296,11.388 C17.192,11.82 15.992,12.168 14.708,12.456 L14.492,11.604 C15.2,11.484 15.896,11.328 16.568,11.136 C16.856,9.384 17.06,7.536 17.192,5.568 L17.972,5.676 C17.828,7.56 17.6,9.3 17.312,10.908 C17.648,10.788 17.984,10.68 18.296,10.56 Z M23.996,4.524 L23.996,2.688 L24.812,2.688 L24.812,5.28 L19.1,5.28 L19.1,2.688 L19.928,2.688 L19.928,4.524 L21.524,4.524 L21.524,2.22 L22.364,2.22 L22.364,4.524 L23.996,4.524 Z M18.584,6.288 L25.412,6.288 L25.412,7.08 L22.256,7.08 C22.172,7.476 22.052,7.86 21.908,8.232 L25.064,8.232 L25.064,12.252 C25.064,12.852 24.812,13.152 24.308,13.152 L23.756,13.152 L23.552,12.372 L24.044,12.408 C24.2,12.408 24.284,12.3 24.284,12.084 L24.284,9 L23.204,9 L23.204,12.96 L22.472,12.96 L22.472,9 L21.5,9 L21.5,12.972 L20.768,12.972 L20.768,9 L19.712,9 L19.712,13.152 L18.932,13.152 L18.932,8.232 L21.068,8.232 C21.212,7.86 21.332,7.476 21.404,7.08 L18.584,7.08 L18.584,6.288 Z" id="Combined-Shape" fill="#FF5C69" fill-rule="nonzero"></path>
    </g>
</svg>